# xmcd CD database file
# Copyright (C) 1995-1998 Ti Kan
#
# Track frame offsets:
#	150
#	15646
#	31581
#	48455
#	66284
#	81657
#	96426
#	108827
#	124047
#	141411
#	157581
#
# Disc length: 2254 seconds
#
# Revision: 1
# Processed by: cddbd v1.4b41PL3 Copyright (c) Steve Scherf et al.
# Submitted via: CDex 1.30
#
DISCID=8b08cc0b
DTITLE=CDX - Volume 267 June 2001
DYEAR=2001
DGENRE=Country
TTITLE0=John Anderson-It Ain't Easy Being Me
TTITLE1=Phil Vassar-Six Pak Summer
TTITLE2=Faith Hill-There Youl'll Be 
TTITLE3=BR549-To Lazy To Work, To Nervous To Steal
TTITLE4=Coley McCabe-Who I Am To You
TTITLE5=The Kinleys-Your Still Here
TTITLE6=Kacey Jones-Every Man I Love Is Either Married, Gay or Dead
TTITLE7=Rick Stevens-I Don't See The Angel
TTITLE8=Radney Foster w Pat Green-Texas In 1880
TTITLE9=Sally Jones-Little White Lies
TTITLE10=O J Hanssen-What's it Gonna Take
EXTD=\nYEAR: 2001  ID3G:   2
EXTT0=
EXTT1=
EXTT2=
EXTT3=
EXTT4=
EXTT5=
EXTT6=
EXTT7=
EXTT8=
EXTT9=
EXTT10=
PLAYORDER=
